<svg xmlns="http://www.w3.org/2000/svg" xmlns:xlink="http://www.w3.org/1999/xlink" id="Fry_s_Logo_-_80px" data-name="Fry's Logo - 80px" width="170" height="133.997" viewBox="0 0 170 133.997"><defs><clipPath id="clip-path"><rect id="Rectangle_4" data-name="Rectangle 4" width="170" height="133.997" fill="none"></rect></clipPath></defs><g id="Group_1" data-name="Group 1" clip-path="url(#clip-path)"><path id="Path_1" data-name="Path 1" d="M98.294,136.25,172.2,22.849a4.624,4.624,0,0,0-3.88-7.15L20,16.034A4.624,4.624,0,0,0,16.149,23.2L90.567,136.267a4.617,4.617,0,0,0,7.727-.017" transform="translate(-9.169 -9.354)" fill="#e50019"></path><path id="Path_2" data-name="Path 2" d="M141.757,47.267,139.6,48.575l-.79-1.3,2.446-1.483-.876-1.445-4.036,2.447,3.892,6.422,1.59-.964-1.35-2.229,2.157-1.308Z" transform="translate(-81.29 -26.422)" fill="#fff"></path><path id="Path_3" data-name="Path 3" d="M156.708,40.206a2.526,2.526,0,0,0-3.586-1.332l-2.571,1.131,3.022,6.878,1.7-.748-.947-2.155.58-.255,2.069,1.661,1.842-.81-2.39-1.858a2.3,2.3,0,0,0,.279-2.512m-2.213,2.023-.785.345-.773-1.76.785-.346a.961.961,0,1,1,.773,1.76" transform="translate(-89.76 -22.987)" fill="#fff"></path><path id="Path_4" data-name="Path 4" d="M171.886,31.024l-1.873.542-.55,3.023-2.079-2.262-1.961.568,3.634,3.744.807,2.79,1.785-.517-.823-2.844Z" transform="translate(-98.627 -18.485)" fill="#fff"></path><path id="Path_5" data-name="Path 5" d="M194.93,33.2l2.51-.242-.161-1.683-2.51.241L194.624,30l2.845-.274-.161-1.683-4.694.452.715,7.479,1.849-.178Z" transform="translate(-114.838 -16.707)" fill="#fff"></path><path id="Path_6" data-name="Path 6" d="M208.63,27.633l-3.538,7.572,1.817.037.366-.9,2.42.049.349.913,1.92.039-3.211-7.709c-.029-.078-.09-.08-.122,0m-.753,5.264.656-1.577.6,1.6Z" transform="translate(-122.278 -16.431)" fill="#fff"></path><path id="Path_7" data-name="Path 7" d="M225.85,33.086l1.379,2.48a.055.055,0,0,0,.091.017l2.1-1.823L229,36.941l1.8.333.98-7.537c0-.078-.038-.074-.089-.028l-3.959,3.377L225.193,28.5c-.03-.062-.068-.08-.093-.006l-1.783,7.388,1.787.332Z" transform="translate(-133.144 -16.951)" fill="#fff"></path><path id="Path_531" data-name="Path 531" d="M0,0H7.513V1.861H0Z" transform="translate(98.654 20.76) rotate(-72.345)" fill="#fff"></path><path id="Path_533" data-name="Path 533" d="M0,0H7.513V1.861H0Z" transform="translate(98.654 20.76) rotate(-72.345)" fill="#fff"></path><path id="Path_8" data-name="Path 8" d="M256.495,37.393l-1.71-.731-2.942,6.908,4.424,1.891.661-1.554-2.714-1.16Z" transform="translate(-150.152 -21.844)" fill="#fff"></path><path id="Path_9" data-name="Path 9" d="M272.128,43.649l-2.541,1.723.157-3.068-1.779-1-.124,5.216-1.425,2.53,1.619.913,1.452-2.578,4.34-2.774Z" transform="translate(-158.84 -24.608)" fill="#fff"></path><path id="Path_10" data-name="Path 10" d="M172.069,66.48l1.268,0,0-1.779,1.721,0,0-1.153-1.721,0,0-1.04,1.95,0,0-1.153-3.218.007Z" transform="translate(-102.583 -36.552)" fill="#fff"></path><path id="Path_11" data-name="Path 11" d="M183.993,61.18a2.628,2.628,0,1,0,2.548,2.617,2.548,2.548,0,0,0-2.548-2.617M184,65.243a1.45,1.45,0,1,1,1.243-1.442A1.283,1.283,0,0,1,184,65.243" transform="translate(-108.186 -36.453)" fill="#fff"></path><path id="Path_12" data-name="Path 12" d="M197.915,61.149a2.628,2.628,0,1,0,2.548,2.617,2.548,2.548,0,0,0-2.548-2.617m.009,4.063a1.45,1.45,0,1,1,1.244-1.443,1.283,1.283,0,0,1-1.244,1.443" transform="translate(-116.487 -36.434)" fill="#fff"></path><path id="Path_13" data-name="Path 13" d="M211.687,61.269l-1.832,0,.011,5.126,1.832,0a2.569,2.569,0,0,0-.012-5.126m-.13,3.965h-.425l-.006-2.8h.425a1.413,1.413,0,0,1,.006,2.8" transform="translate(-125.118 -36.506)" fill="#fff"></path><path id="Path_14" data-name="Path 14" d="M228.667,65.143c-.724,0-1.165-.631-1.167-1.437s.422-1.433,1.118-1.435a1.157,1.157,0,0,1,1.074.608l.953-.7a2.256,2.256,0,0,0-2.05-1.1,2.635,2.635,0,0,0,.082,5.254,2.159,2.159,0,0,0,2.08-1.225l-.977-.676a1.132,1.132,0,0,1-1.113.711" transform="translate(-134.866 -36.393)" fill="#fff"></path><path id="Path_15" data-name="Path 15" d="M240.817,61.052a2.628,2.628,0,1,0,2.548,2.617,2.548,2.548,0,0,0-2.548-2.617m.009,4.063a1.45,1.45,0,1,1,1.244-1.442,1.282,1.282,0,0,1-1.244,1.442" transform="translate(-142.065 -36.376)" fill="#fff"></path><path id="Path_16" data-name="Path 16" d="M252.389,70.395a.74.74,0,1,0,.7.737.71.71,0,0,0-.7-.737" transform="translate(-150.063 -41.943)" fill="#fff"></path><path id="Path_17" data-name="Path 17" d="M199.56,155.153c-5.735,0-10.064-4.118-10.07-9.58,0-4.126,2.223-7.958,6.274-10.791a28.7,28.7,0,0,1,13.3-4.6c.212-.909.407-1.784.585-2.628a12.089,12.089,0,0,1-8.706,3.808,6.141,6.141,0,0,1-4.864-2.093c-1.786-2.1-2.3-5.584-1.527-10.356l1.93-10.937c.71-4.564.635-6.767-.29-8.4a1.212,1.212,0,0,1,.143-1.4,11.084,11.084,0,0,1,6.836-3.634,9.206,9.206,0,0,1,1.241-.089,4.926,4.926,0,0,1,3.959,1.639c1.273,1.5,1.629,3.84,1.085,7.151l-2.184,13.084c-.335,2.152-.13,2.872-.043,3.066,1.362-.072,4.153-2.338,5.584-10.534l.176-1.075c1.051-6.751.984-11.378.372-12.455a1.213,1.213,0,0,1,.144-1.4,11.4,11.4,0,0,1,6.959-3.634,8.065,8.065,0,0,1,1.089-.077,4.919,4.919,0,0,1,3.857,1.625c1.308,1.51,1.739,3.9,1.28,7.09l-2.306,15.041a119.706,119.706,0,0,1-3.645,16.089q.694,0,1.386,0c13.741,0,27.016-.917,31.075-7.568a1.211,1.211,0,0,1,1.034-.58l.062,0a1.21,1.21,0,0,1,1.031.688c2.538,5.317,1.322,9.216-.145,11.551-3.349,5.33-11.018,7.772-16.728,7.785h-.062c-4.894,0-10.507-1.256-15.935-2.472-1.6-.357-3.119-.7-4.571-.994-6.018,15.453-15.512,16.673-18.322,16.673m7.5-17.106c-3.464.933-6.829,3.255-6.824,7.4,0,.647.332,1.3,1.072,1.3,1.237,0,3.761-1.872,5.753-8.7" transform="translate(-112.976 -53.755)" fill="#fff"></path><path id="Path_18" data-name="Path 18" d="M219.761,89.644c3.345,0,4.578,2.868,3.938,7.331L221.4,112a119.005,119.005,0,0,1-4.086,17.475q1.519.013,3.023.013c14.566,0,27.762-1.026,32.109-8.148,5.492,11.506-6.874,17.581-15.783,17.6h-.06c-6.527,0-14.755-2.384-21.276-3.642,0,.011-.008.023-.012.034-4.475,12.2-11.756,16.816-17.539,16.816-4.982,0-8.853-3.425-8.859-8.369-.009-7.934,8.913-13.432,19.337-14.267.637-2.665,1.255-5.534,1.71-8.453-3.077,5.061-6.709,7.284-10.813,7.294h-.017c-3.773,0-6.484-2.961-5.176-11.042l1.927-10.92c.693-4.455.746-7.135-.43-9.207a9.915,9.915,0,0,1,6.091-3.232,7.9,7.9,0,0,1,1.076-.078c3.273,0,4.661,2.433,3.849,7.38l-2.184,13.08c-.5,3.2-.044,4.482,1.115,4.482h0c1.621,0,5.141-1.974,6.812-11.541l.178-1.088c.937-6.012,1.173-11.588.23-13.25a10.2,10.2,0,0,1,6.215-3.232,6.674,6.674,0,0,1,.924-.066m-20.239,56.523c2.084,0,5.156-2.647,7.289-10.932l.141-.546c-5.047.673-9.719,3.693-9.713,8.968a2.341,2.341,0,0,0,2.283,2.51m20.239-58.948v0a9.176,9.176,0,0,0-1.253.089,12.628,12.628,0,0,0-7.705,4.034,2.429,2.429,0,0,0-.3,2.784c.321.709.615,4.477-.509,11.694l-.173,1.056c-.9,5.169-2.273,7.55-3.255,8.635.025-.231.06-.492.105-.785l2.181-13.067c.606-3.689.162-6.349-1.355-8.138a6.106,6.106,0,0,0-4.883-2.067,10.333,10.333,0,0,0-1.406.1,12.293,12.293,0,0,0-7.581,4.034,2.427,2.427,0,0,0-.287,2.8c.76,1.338.8,3.4.145,7.611l-1.922,10.9-.006.034c-.832,5.139-.226,8.953,1.8,11.336a6.926,6.926,0,0,0,2.835,2.006A23.349,23.349,0,0,0,193.281,132c-4.385,3.066-6.8,7.252-6.791,11.786.007,6.152,4.857,10.791,11.282,10.791a16.665,16.665,0,0,0,10.842-4.42,31.713,31.713,0,0,0,8.224-12.072c1.142.242,2.329.508,3.56.784,5.237,1.172,11.173,2.5,16.2,2.5h.065c6.031-.013,14.158-2.633,17.751-8.352,1.629-2.593,2.988-6.9.213-12.719a2.422,2.422,0,0,0-2.062-1.376c-.042,0-.083,0-.124,0a2.423,2.423,0,0,0-2.067,1.16c-3.726,6.105-16.505,6.977-29.81,6.987a121.013,121.013,0,0,0,3.225-14.689l2.3-15.036c0-.008,0-.015,0-.023.51-3.558-.016-6.269-1.564-8.057a6.056,6.056,0,0,0-4.772-2.044m-20.1,56.5c0-.018,0-.039,0-.061a6.166,6.166,0,0,1,3.673-5.4c-1.519,4.021-3.087,5.267-3.67,5.457" transform="translate(-111.188 -51.967)" fill="#e50019"></path><path id="Path_19" data-name="Path 19" d="M297.583,113c-7.639,0-12.984-4.123-13-10.027a7.321,7.321,0,0,1,2.049-5.252,6.267,6.267,0,0,1,4.468-1.858,7.272,7.272,0,0,1,3.7,1.056,1.213,1.213,0,0,1,.569,1.32c-.56,2.416-.344,4.551.578,5.713a2.866,2.866,0,0,0,2.408,1.042h.094a3.077,3.077,0,0,0,3.043-3.177c-.006-2.431-1.9-3.644-4.985-5.422-3.619-2.085-8.124-4.681-8.138-11.274a11.069,11.069,0,0,1,4.139-8.607,15.031,15.031,0,0,1,9.619-3.333h.045c6.661,0,11.144,3.214,11.155,8a6.085,6.085,0,0,1-1.823,4.251,6.716,6.716,0,0,1-4.793,1.979,7.168,7.168,0,0,1-1.007-.072,1.212,1.212,0,0,1-1.03-1.358c.277-2.109.071-3.625-.6-4.386a2.386,2.386,0,0,0-1.9-.683,2.53,2.53,0,0,0-2.384,2.661c0,1.913,1.618,2.834,4.469,4.3,3.717,1.911,8.809,4.526,8.826,12.209.017,7.467-6.484,12.9-15.457,12.922Z" transform="translate(-169.674 -43.603)" fill="#fff"></path><path id="Path_20" data-name="Path 20" d="M300.386,72.606c5.385,0,9.933,2.313,9.943,6.786a5.3,5.3,0,0,1-5.405,5.015,5.93,5.93,0,0,1-.836-.06c.5-3.834-.4-6.439-3.7-6.439h-.014a3.732,3.732,0,0,0-3.58,3.876c.015,6.484,13.267,4.469,13.294,16.509C310.1,104.627,304.6,109.98,295.84,110h-.045c-6.648,0-11.774-3.322-11.786-8.817-.008-3.45,2.372-5.9,5.305-5.9a6.1,6.1,0,0,1,3.089.89c-1.044,4.5.3,8.241,4.166,8.241h.118a4.29,4.29,0,0,0,4.231-4.391c-.017-7.219-13.1-5.968-13.123-16.7-.014-6.178,5.709-10.709,12.55-10.725h.042m0-2.425h-.048A16.239,16.239,0,0,0,289.947,73.8a12.261,12.261,0,0,0-4.575,9.541,11.689,11.689,0,0,0,4.527,9.549q-.292-.022-.584-.022a7.47,7.47,0,0,0-5.326,2.215,8.524,8.524,0,0,0-2.4,6.111c.015,6.616,5.858,11.237,14.209,11.237h.05a18.069,18.069,0,0,0,11.99-4.074,13.11,13.11,0,0,0,4.675-10.062,12.763,12.763,0,0,0-6.369-11.546,7.891,7.891,0,0,0,4.433-2.244,7.3,7.3,0,0,0,2.177-5.111c-.012-5.506-4.982-9.206-12.366-9.206m1.28,14.105c-1.722-.946-2.448-1.571-2.45-2.506a1.32,1.32,0,0,1,1.163-1.446,1.348,1.348,0,0,1,1,.27c.109.125.64.878.305,3.428a2.258,2.258,0,0,0-.02.254m-5.1,17.708a1.667,1.667,0,0,1-1.459-.584c-.536-.675-.909-2.261-.347-4.684a2.428,2.428,0,0,0,.061-.658c2.6,1.527,3.669,2.411,3.672,3.964a1.865,1.865,0,0,1-1.846,1.961Z" transform="translate(-167.885 -41.816)" fill="#e50019"></path><path id="Path_21" data-name="Path 21" d="M62.631,137.322a5.391,5.391,0,0,1-4.265-1.751,5.907,5.907,0,0,1-1.081-4.982l5.043-31.575c.33-2.068.18-3.709-.4-4.389a1.06,1.06,0,0,0-.9-.362,2.644,2.644,0,0,0-.389.031,1.212,1.212,0,0,1-1.39-1.224c.085-4.122,4.132-7.457,11.1-9.149,1.824-.443,3.848-.83,5.991-1.238,7.285-1.39,15.543-2.966,18.068-7.252a1.211,1.211,0,0,1,1.811-.322,7.519,7.519,0,0,1,2.519,7.521c-.978,4.638-5.548,8.41-12.538,10.349-4.223,1.172-7.611,1.917-10.194,2.467L74.5,105.2c.9-.214,1.8-.412,2.674-.607,3.625-.8,7.049-1.565,9.229-3.057a1.211,1.211,0,0,1,1.865.73c.541,2.366,2.188,9.566-9.059,12.882a42.56,42.56,0,0,1-6.455,1.321l-2.708,17.49a1.213,1.213,0,0,1-.474.787,12.106,12.106,0,0,1-6.942,2.573" transform="translate(-34.086 -44.587)" fill="#fff"></path><path id="Path_22" data-name="Path 22" d="M93.668,74.258c4.273,3.5,3.206,12.219-9.575,15.764-4.6,1.277-8.118,2.024-10.939,2.622l-1.918,12.388c5.4-1.417,10.787-2.037,14.064-4.28.859,3.754.873,8.767-8.22,11.448a45.378,45.378,0,0,1-7.171,1.406l-2.847,18.382a10.878,10.878,0,0,1-6.218,2.333c-2.746,0-4.724-1.686-4.149-5.331l5.042-31.573c.543-3.41-.03-6.155-2.5-6.155a3.824,3.824,0,0,0-.568.044c.065-3.2,3.278-6.32,10.178-8,8.191-1.989,21.225-2.959,24.817-9.053m0-2.425a2.42,2.42,0,0,0-2.087,1.193c-2.247,3.814-10.567,5.4-17.252,6.678-2.158.412-4.2.8-6.05,1.251a21.319,21.319,0,0,0-8.627,3.916,8.429,8.429,0,0,0-3.4,6.386,2.422,2.422,0,0,0,2.78,2.448,1.458,1.458,0,0,1,.21-.018h.02a6.156,6.156,0,0,1,.083,3.347L54.3,128.607a7.078,7.078,0,0,0,1.356,5.964,6.649,6.649,0,0,0,5.185,2.176,13.333,13.333,0,0,0,7.665-2.813,2.425,2.425,0,0,0,.948-1.573l2.571-16.6a41.009,41.009,0,0,0,5.737-1.231c4.775-1.408,7.825-3.555,9.325-6.565a11.345,11.345,0,0,0,.572-7.75,2.422,2.422,0,0,0-3.729-1.461c-1.989,1.361-5.3,2.1-8.809,2.874l-.94.209,1.11-7.166c2.482-.535,5.623-1.248,9.448-2.309,7.441-2.064,12.325-6.171,13.4-11.268a8.825,8.825,0,0,0-2.936-8.71,2.421,2.421,0,0,0-1.535-.549" transform="translate(-32.298 -42.8)" fill="#e50019"></path><path id="Path_23" data-name="Path 23" d="M137.017,150.5a4.885,4.885,0,0,1-3.858-1.611c-1.084-1.267-1.448-3.1-1.081-5.459l2.695-17.145c.4-2.55-.053-3.4-.265-3.649-.073-.085-.266-.31-.89-.31-.065,0-.132,0-.2.007l-.084,0a1.212,1.212,0,0,1-1.16-1.561c1.14-3.8,4.6-7.659,9.016-7.669a5.567,5.567,0,0,1,5.285,2.942c2.542-4.254,5.431-5.82,7.561-6.357a8.184,8.184,0,0,1,1.985-.262,5.245,5.245,0,0,1,3.972,1.655c1.37,1.483,1.968,3.842,1.731,6.822-.378,4.762-4.439,11.96-9.7,11.96h0a5.73,5.73,0,0,1-2.325-.5,1.213,1.213,0,0,1-.606-1.625c1.263-2.692,1.156-4.471.888-4.846a.463.463,0,0,0-.059.012c-.316.079-1.967.856-3.552,8.363l-2.516,16.173a1.216,1.216,0,0,1-.52.819,11.785,11.785,0,0,1-6.315,2.239" transform="translate(-78.664 -65.202)" fill="#fff"></path><path id="Path_24" data-name="Path 24" d="M154.238,108.856c3.142,0,4.854,2.655,4.5,7.168-.366,4.614-4.212,10.843-8.492,10.843a4.5,4.5,0,0,1-1.836-.4c1.736-3.7,1.426-6.578-.174-6.578a1.6,1.6,0,0,0-.389.051c-1.918.483-3.366,4.179-4.449,9.321l-2.521,16.2a10.63,10.63,0,0,1-5.639,2.033c-2.591,0-4.355-1.729-3.742-5.671l2.7-17.143c.541-3.475-.165-5.361-2.352-5.361-.092,0-.187,0-.285.01.9-3.015,3.825-6.8,7.858-6.8h.018c2.973,0,4.571,1.69,4.946,5,2.26-5.117,5.224-7.707,8.175-8.45a6.928,6.928,0,0,1,1.689-.226m0-2.425a9.375,9.375,0,0,0-2.281.3,12.983,12.983,0,0,0-7.326,5.413,6.941,6.941,0,0,0-5.2-2.034h-.022c-5,.011-8.906,4.3-10.175,8.533a2.425,2.425,0,0,0,2.321,3.122c.055,0,.111,0,.167-.006.04,0,.08,0,.118,0h0a6.31,6.31,0,0,1-.045,2.563L129.1,141.455c-.528,3.393.447,5.373,1.358,6.438a6.059,6.059,0,0,0,4.778,2.035,12.984,12.984,0,0,0,6.992-2.446,2.424,2.424,0,0,0,1.041-1.639l2.512-16.14c.164-.775.327-1.471.488-2.1a2.424,2.424,0,0,0,1.161,1.081,6.919,6.919,0,0,0,2.814.6c6.025,0,10.485-7.744,10.908-13.076.264-3.326-.445-6-2.049-7.741a6.427,6.427,0,0,0-4.862-2.045" transform="translate(-76.882 -63.414)" fill="#e50019"></path><path id="Path_25" data-name="Path 25" d="M281.246,73.547a12.479,12.479,0,0,0,.006-5.9c-.03-.095-.059-.19-.091-.283a9.9,9.9,0,0,1,1.172,5.646c0,.041-.006.082-.009.124-.008.1-.018.21-.028.315-.033.322-.078.647-.136.976a12.521,12.521,0,0,1-1.06,3.293,7.059,7.059,0,0,0,2.325-4.659,4.624,4.624,0,0,0,1.552-5.27c-.608-2.182-3.829-5.454-6.26-6.618A16.853,16.853,0,0,0,277.7,69.3c.437,3.341,2.3,4.113,3.541,4.243" transform="translate(-165.495 -36.448)" fill="#fff"></path></g></svg>